<mxfile host="app.diagrams.net" agent="Mozilla/5.0 (X11; Linux x86_64; rv:142.0) Gecko/20100101 Firefox/142.0" version="28.2.1">
  <diagram name="Page-1" id="SgjVkiHpOriX0zcrWdsi">
    <mxGraphModel dx="2434" dy="987" grid="1" gridSize="10" guides="1" tooltips="1" connect="1" arrows="1" fold="1" page="1" pageScale="1" pageWidth="850" pageHeight="1100" math="0" shadow="0">
      <root>
        <mxCell id="0" />
        <mxCell id="1" parent="0" />
        <mxCell id="oiWjbPKBmij4qANT0MO2-24" style="edgeStyle=orthogonalEdgeStyle;rounded=0;orthogonalLoop=1;jettySize=auto;html=1;entryX=0.5;entryY=0;entryDx=0;entryDy=0;curved=1;exitX=0.5;exitY=1;exitDx=0;exitDy=0;" edge="1" parent="1" source="oiWjbPKBmij4qANT0MO2-85" target="oiWjbPKBmij4qANT0MO2-21">
          <mxGeometry relative="1" as="geometry">
            <mxPoint x="210" y="410" as="sourcePoint" />
          </mxGeometry>
        </mxCell>
        <mxCell id="oiWjbPKBmij4qANT0MO2-28" value="SceneGraph" style="edgeLabel;html=1;align=center;verticalAlign=middle;resizable=0;points=[];" vertex="1" connectable="0" parent="oiWjbPKBmij4qANT0MO2-24">
          <mxGeometry x="0.041" y="-2" relative="1" as="geometry">
            <mxPoint as="offset" />
          </mxGeometry>
        </mxCell>
        <mxCell id="oiWjbPKBmij4qANT0MO2-25" style="edgeStyle=orthogonalEdgeStyle;rounded=0;orthogonalLoop=1;jettySize=auto;html=1;exitX=0.5;exitY=1;exitDx=0;exitDy=0;entryX=0.5;entryY=0;entryDx=0;entryDy=0;curved=1;" edge="1" parent="1" source="oiWjbPKBmij4qANT0MO2-85" target="oiWjbPKBmij4qANT0MO2-23">
          <mxGeometry relative="1" as="geometry">
            <mxPoint x="210" y="410" as="sourcePoint" />
          </mxGeometry>
        </mxCell>
        <mxCell id="oiWjbPKBmij4qANT0MO2-27" value="Window" style="edgeLabel;html=1;align=center;verticalAlign=middle;resizable=0;points=[];" vertex="1" connectable="0" parent="oiWjbPKBmij4qANT0MO2-25">
          <mxGeometry x="0.0704" y="-1" relative="1" as="geometry">
            <mxPoint as="offset" />
          </mxGeometry>
        </mxCell>
        <mxCell id="oiWjbPKBmij4qANT0MO2-26" style="edgeStyle=orthogonalEdgeStyle;rounded=0;orthogonalLoop=1;jettySize=auto;html=1;exitX=0.5;exitY=1;exitDx=0;exitDy=0;entryX=1;entryY=0.5;entryDx=0;entryDy=0;curved=1;" edge="1" parent="1" source="oiWjbPKBmij4qANT0MO2-21" target="oiWjbPKBmij4qANT0MO2-23">
          <mxGeometry relative="1" as="geometry" />
        </mxCell>
        <mxCell id="oiWjbPKBmij4qANT0MO2-21" value="SceneGraphAdapter" style="html=1;whiteSpace=wrap;" vertex="1" parent="1">
          <mxGeometry x="245" y="510" width="135" height="50" as="geometry" />
        </mxCell>
        <mxCell id="oiWjbPKBmij4qANT0MO2-30" style="edgeStyle=orthogonalEdgeStyle;rounded=0;orthogonalLoop=1;jettySize=auto;html=1;exitX=0.5;exitY=1;exitDx=0;exitDy=0;entryX=0.5;entryY=0;entryDx=0;entryDy=0;" edge="1" parent="1" source="oiWjbPKBmij4qANT0MO2-23" target="oiWjbPKBmij4qANT0MO2-29">
          <mxGeometry relative="1" as="geometry" />
        </mxCell>
        <mxCell id="oiWjbPKBmij4qANT0MO2-23" value="&lt;div&gt;Visibility &amp;amp;&lt;/div&gt;&lt;div&gt;Culling&lt;/div&gt;" style="html=1;whiteSpace=wrap;" vertex="1" parent="1">
          <mxGeometry x="100" y="560" width="110" height="50" as="geometry" />
        </mxCell>
        <mxCell id="oiWjbPKBmij4qANT0MO2-32" style="edgeStyle=orthogonalEdgeStyle;rounded=0;orthogonalLoop=1;jettySize=auto;html=1;exitX=0.5;exitY=1;exitDx=0;exitDy=0;entryX=0.5;entryY=0;entryDx=0;entryDy=0;" edge="1" parent="1" source="oiWjbPKBmij4qANT0MO2-29" target="oiWjbPKBmij4qANT0MO2-31">
          <mxGeometry relative="1" as="geometry" />
        </mxCell>
        <mxCell id="oiWjbPKBmij4qANT0MO2-29" value="&lt;div&gt;RenderLists/&lt;/div&gt;&lt;div&gt;DrawBatches&lt;/div&gt;" style="html=1;whiteSpace=wrap;" vertex="1" parent="1">
          <mxGeometry x="100" y="650" width="110" height="50" as="geometry" />
        </mxCell>
        <mxCell id="oiWjbPKBmij4qANT0MO2-35" style="edgeStyle=orthogonalEdgeStyle;rounded=0;orthogonalLoop=1;jettySize=auto;html=1;exitX=0.5;exitY=1;exitDx=0;exitDy=0;entryX=0;entryY=0.5;entryDx=0;entryDy=0;curved=1;" edge="1" parent="1" source="oiWjbPKBmij4qANT0MO2-31" target="oiWjbPKBmij4qANT0MO2-34">
          <mxGeometry relative="1" as="geometry" />
        </mxCell>
        <mxCell id="oiWjbPKBmij4qANT0MO2-31" value="&lt;div&gt;RenderGraph&lt;/div&gt;&lt;div&gt;Schedular&lt;/div&gt;" style="html=1;whiteSpace=wrap;" vertex="1" parent="1">
          <mxGeometry x="100" y="740" width="110" height="50" as="geometry" />
        </mxCell>
        <mxCell id="oiWjbPKBmij4qANT0MO2-41" style="edgeStyle=orthogonalEdgeStyle;rounded=0;orthogonalLoop=1;jettySize=auto;html=1;exitX=0.5;exitY=1;exitDx=0;exitDy=0;entryX=1;entryY=0.5;entryDx=0;entryDy=0;curved=1;" edge="1" parent="1" source="oiWjbPKBmij4qANT0MO2-33" target="oiWjbPKBmij4qANT0MO2-34">
          <mxGeometry relative="1" as="geometry" />
        </mxCell>
        <mxCell id="oiWjbPKBmij4qANT0MO2-33" value="&lt;div&gt;Resource&lt;/div&gt;&lt;div&gt;Manager&lt;/div&gt;" style="html=1;whiteSpace=wrap;" vertex="1" parent="1">
          <mxGeometry x="345" y="740" width="110" height="50" as="geometry" />
        </mxCell>
        <mxCell id="oiWjbPKBmij4qANT0MO2-34" value="&lt;div&gt;Command&lt;/div&gt;&lt;div&gt;Builder / Encoder&lt;/div&gt;" style="html=1;whiteSpace=wrap;" vertex="1" parent="1">
          <mxGeometry x="222.5" y="830" width="110" height="50" as="geometry" />
        </mxCell>
        <mxCell id="oiWjbPKBmij4qANT0MO2-42" style="edgeStyle=orthogonalEdgeStyle;rounded=0;orthogonalLoop=1;jettySize=auto;html=1;exitX=0.5;exitY=1;exitDx=0;exitDy=0;entryX=0.5;entryY=0;entryDx=0;entryDy=0;" edge="1" parent="1" source="oiWjbPKBmij4qANT0MO2-40" target="oiWjbPKBmij4qANT0MO2-33">
          <mxGeometry relative="1" as="geometry" />
        </mxCell>
        <mxCell id="oiWjbPKBmij4qANT0MO2-40" value="Asset Loader / IO" style="html=1;whiteSpace=wrap;" vertex="1" parent="1">
          <mxGeometry x="345" y="630" width="110" height="50" as="geometry" />
        </mxCell>
        <mxCell id="oiWjbPKBmij4qANT0MO2-43" value="Event" style="swimlane;fontStyle=0;childLayout=stackLayout;horizontal=1;startSize=26;fillColor=none;horizontalStack=0;resizeParent=1;resizeParentMax=0;resizeLast=0;collapsible=1;marginBottom=0;whiteSpace=wrap;html=1;" vertex="1" parent="1">
          <mxGeometry x="-690" y="170" width="140" height="156" as="geometry" />
        </mxCell>
        <mxCell id="oiWjbPKBmij4qANT0MO2-44" value="sender_id: u32" style="text;strokeColor=none;fillColor=none;align=left;verticalAlign=top;spacingLeft=4;spacingRight=4;overflow=hidden;rotatable=0;points=[[0,0.5],[1,0.5]];portConstraint=eastwest;whiteSpace=wrap;html=1;" vertex="1" parent="oiWjbPKBmij4qANT0MO2-43">
          <mxGeometry y="26" width="140" height="26" as="geometry" />
        </mxCell>
        <mxCell id="oiWjbPKBmij4qANT0MO2-45" value="&lt;div&gt;receiver_id: u32&lt;/div&gt;" style="text;strokeColor=none;fillColor=none;align=left;verticalAlign=top;spacingLeft=4;spacingRight=4;overflow=hidden;rotatable=0;points=[[0,0.5],[1,0.5]];portConstraint=eastwest;whiteSpace=wrap;html=1;" vertex="1" parent="oiWjbPKBmij4qANT0MO2-43">
          <mxGeometry y="52" width="140" height="26" as="geometry" />
        </mxCell>
        <mxCell id="oiWjbPKBmij4qANT0MO2-46" value="&lt;div&gt;priority: u32&lt;/div&gt;" style="text;strokeColor=none;fillColor=none;align=left;verticalAlign=top;spacingLeft=4;spacingRight=4;overflow=hidden;rotatable=0;points=[[0,0.5],[1,0.5]];portConstraint=eastwest;whiteSpace=wrap;html=1;" vertex="1" parent="oiWjbPKBmij4qANT0MO2-43">
          <mxGeometry y="78" width="140" height="26" as="geometry" />
        </mxCell>
        <mxCell id="oiWjbPKBmij4qANT0MO2-51" value="event_type: EventType" style="text;strokeColor=none;fillColor=none;align=left;verticalAlign=top;spacingLeft=4;spacingRight=4;overflow=hidden;rotatable=0;points=[[0,0.5],[1,0.5]];portConstraint=eastwest;whiteSpace=wrap;html=1;" vertex="1" parent="oiWjbPKBmij4qANT0MO2-43">
          <mxGeometry y="104" width="140" height="26" as="geometry" />
        </mxCell>
        <mxCell id="oiWjbPKBmij4qANT0MO2-52" value="payload" style="text;strokeColor=none;fillColor=none;align=left;verticalAlign=top;spacingLeft=4;spacingRight=4;overflow=hidden;rotatable=0;points=[[0,0.5],[1,0.5]];portConstraint=eastwest;whiteSpace=wrap;html=1;" vertex="1" parent="oiWjbPKBmij4qANT0MO2-43">
          <mxGeometry y="130" width="140" height="26" as="geometry" />
        </mxCell>
        <mxCell id="oiWjbPKBmij4qANT0MO2-91" style="edgeStyle=orthogonalEdgeStyle;rounded=0;orthogonalLoop=1;jettySize=auto;html=1;exitX=0.5;exitY=1;exitDx=0;exitDy=0;entryX=0.5;entryY=0;entryDx=0;entryDy=0;" edge="1" parent="1" source="oiWjbPKBmij4qANT0MO2-58" target="oiWjbPKBmij4qANT0MO2-89">
          <mxGeometry relative="1" as="geometry" />
        </mxCell>
        <mxCell id="oiWjbPKBmij4qANT0MO2-58" value="Queue" style="html=1;whiteSpace=wrap;" vertex="1" parent="1">
          <mxGeometry x="155" y="140" width="110" height="50" as="geometry" />
        </mxCell>
        <mxCell id="oiWjbPKBmij4qANT0MO2-72" style="edgeStyle=orthogonalEdgeStyle;rounded=0;orthogonalLoop=1;jettySize=auto;html=1;entryX=0.5;entryY=0;entryDx=0;entryDy=0;exitX=0.5;exitY=1;exitDx=0;exitDy=0;" edge="1" parent="1" source="oiWjbPKBmij4qANT0MO2-89" target="oiWjbPKBmij4qANT0MO2-85">
          <mxGeometry relative="1" as="geometry">
            <mxPoint x="210" y="57" as="sourcePoint" />
            <mxPoint x="210" y="160" as="targetPoint" />
          </mxGeometry>
        </mxCell>
        <mxCell id="oiWjbPKBmij4qANT0MO2-75" value="Render Event" style="swimlane;fontStyle=0;childLayout=stackLayout;horizontal=1;startSize=26;fillColor=none;horizontalStack=0;resizeParent=1;resizeParentMax=0;resizeLast=0;collapsible=1;marginBottom=0;whiteSpace=wrap;html=1;" vertex="1" parent="1">
          <mxGeometry x="-660" y="494" width="140" height="78" as="geometry" />
        </mxCell>
        <mxCell id="oiWjbPKBmij4qANT0MO2-76" value="- SceneGraph" style="text;strokeColor=none;fillColor=none;align=left;verticalAlign=top;spacingLeft=4;spacingRight=4;overflow=hidden;rotatable=0;points=[[0,0.5],[1,0.5]];portConstraint=eastwest;whiteSpace=wrap;html=1;" vertex="1" parent="oiWjbPKBmij4qANT0MO2-75">
          <mxGeometry y="26" width="140" height="26" as="geometry" />
        </mxCell>
        <mxCell id="oiWjbPKBmij4qANT0MO2-77" value="- Window" style="text;strokeColor=none;fillColor=none;align=left;verticalAlign=top;spacingLeft=4;spacingRight=4;overflow=hidden;rotatable=0;points=[[0,0.5],[1,0.5]];portConstraint=eastwest;whiteSpace=wrap;html=1;" vertex="1" parent="oiWjbPKBmij4qANT0MO2-75">
          <mxGeometry y="52" width="140" height="26" as="geometry" />
        </mxCell>
        <mxCell id="oiWjbPKBmij4qANT0MO2-81" value="Dispatcher" style="swimlane;fontStyle=1;align=center;verticalAlign=top;childLayout=stackLayout;horizontal=1;startSize=26;horizontalStack=0;resizeParent=1;resizeParentMax=0;resizeLast=0;collapsible=1;marginBottom=0;whiteSpace=wrap;html=1;" vertex="1" parent="1">
          <mxGeometry x="-450" y="380" width="160" height="86" as="geometry" />
        </mxCell>
        <mxCell id="oiWjbPKBmij4qANT0MO2-82" value="modules: [Module]" style="text;strokeColor=none;fillColor=none;align=left;verticalAlign=top;spacingLeft=4;spacingRight=4;overflow=hidden;rotatable=0;points=[[0,0.5],[1,0.5]];portConstraint=eastwest;whiteSpace=wrap;html=1;" vertex="1" parent="oiWjbPKBmij4qANT0MO2-81">
          <mxGeometry y="26" width="160" height="26" as="geometry" />
        </mxCell>
        <mxCell id="oiWjbPKBmij4qANT0MO2-83" value="" style="line;strokeWidth=1;fillColor=none;align=left;verticalAlign=middle;spacingTop=-1;spacingLeft=3;spacingRight=3;rotatable=0;labelPosition=right;points=[];portConstraint=eastwest;strokeColor=inherit;" vertex="1" parent="oiWjbPKBmij4qANT0MO2-81">
          <mxGeometry y="52" width="160" height="8" as="geometry" />
        </mxCell>
        <mxCell id="oiWjbPKBmij4qANT0MO2-84" value="dispatch()" style="text;strokeColor=none;fillColor=none;align=left;verticalAlign=top;spacingLeft=4;spacingRight=4;overflow=hidden;rotatable=0;points=[[0,0.5],[1,0.5]];portConstraint=eastwest;whiteSpace=wrap;html=1;" vertex="1" parent="oiWjbPKBmij4qANT0MO2-81">
          <mxGeometry y="60" width="160" height="26" as="geometry" />
        </mxCell>
        <mxCell id="oiWjbPKBmij4qANT0MO2-85" value="Dispatcher" style="html=1;whiteSpace=wrap;" vertex="1" parent="1">
          <mxGeometry x="155" y="340" width="110" height="50" as="geometry" />
        </mxCell>
        <mxCell id="oiWjbPKBmij4qANT0MO2-86" value="EventBus" style="swimlane;fontStyle=0;childLayout=stackLayout;horizontal=1;startSize=26;fillColor=none;horizontalStack=0;resizeParent=1;resizeParentMax=0;resizeLast=0;collapsible=1;marginBottom=0;whiteSpace=wrap;html=1;" vertex="1" parent="1">
          <mxGeometry x="-470" y="594" width="140" height="78" as="geometry" />
        </mxCell>
        <mxCell id="oiWjbPKBmij4qANT0MO2-87" value="push(event)" style="text;strokeColor=none;fillColor=none;align=left;verticalAlign=top;spacingLeft=4;spacingRight=4;overflow=hidden;rotatable=0;points=[[0,0.5],[1,0.5]];portConstraint=eastwest;whiteSpace=wrap;html=1;" vertex="1" parent="oiWjbPKBmij4qANT0MO2-86">
          <mxGeometry y="26" width="140" height="26" as="geometry" />
        </mxCell>
        <mxCell id="oiWjbPKBmij4qANT0MO2-88" value="drain()" style="text;strokeColor=none;fillColor=none;align=left;verticalAlign=top;spacingLeft=4;spacingRight=4;overflow=hidden;rotatable=0;points=[[0,0.5],[1,0.5]];portConstraint=eastwest;whiteSpace=wrap;html=1;" vertex="1" parent="oiWjbPKBmij4qANT0MO2-86">
          <mxGeometry y="52" width="140" height="26" as="geometry" />
        </mxCell>
        <mxCell id="oiWjbPKBmij4qANT0MO2-89" value="EventBus" style="html=1;whiteSpace=wrap;" vertex="1" parent="1">
          <mxGeometry x="155" y="240" width="110" height="50" as="geometry" />
        </mxCell>
        <mxCell id="oiWjbPKBmij4qANT0MO2-93" style="edgeStyle=orthogonalEdgeStyle;rounded=0;orthogonalLoop=1;jettySize=auto;html=1;exitX=0.5;exitY=1;exitDx=0;exitDy=0;" edge="1" parent="1" source="oiWjbPKBmij4qANT0MO2-92" target="oiWjbPKBmij4qANT0MO2-58">
          <mxGeometry relative="1" as="geometry" />
        </mxCell>
        <mxCell id="oiWjbPKBmij4qANT0MO2-94" value="&amp;lt;SceneGraph, Window&amp;gt;" style="edgeLabel;html=1;align=center;verticalAlign=middle;resizable=0;points=[];" vertex="1" connectable="0" parent="oiWjbPKBmij4qANT0MO2-93">
          <mxGeometry x="0.0538" y="3" relative="1" as="geometry">
            <mxPoint as="offset" />
          </mxGeometry>
        </mxCell>
        <mxCell id="oiWjbPKBmij4qANT0MO2-92" value="RenderEvent" style="html=1;whiteSpace=wrap;" vertex="1" parent="1">
          <mxGeometry x="155" y="20" width="110" height="50" as="geometry" />
        </mxCell>
        <mxCell id="oiWjbPKBmij4qANT0MO2-95" value="EntityManager" style="swimlane;fontStyle=1;align=center;verticalAlign=top;childLayout=stackLayout;horizontal=1;startSize=26;horizontalStack=0;resizeParent=1;resizeParentMax=0;resizeLast=0;collapsible=1;marginBottom=0;whiteSpace=wrap;html=1;" vertex="1" parent="1">
          <mxGeometry x="1130" y="286" width="270" height="138" as="geometry" />
        </mxCell>
        <mxCell id="oiWjbPKBmij4qANT0MO2-96" value="entity_components: Map&amp;lt;id, Vec&amp;lt;Components&amp;gt;" style="text;strokeColor=none;fillColor=none;align=left;verticalAlign=top;spacingLeft=4;spacingRight=4;overflow=hidden;rotatable=0;points=[[0,0.5],[1,0.5]];portConstraint=eastwest;whiteSpace=wrap;html=1;" vertex="1" parent="oiWjbPKBmij4qANT0MO2-95">
          <mxGeometry y="26" width="270" height="26" as="geometry" />
        </mxCell>
        <mxCell id="oiWjbPKBmij4qANT0MO2-97" value="" style="line;strokeWidth=1;fillColor=none;align=left;verticalAlign=middle;spacingTop=-1;spacingLeft=3;spacingRight=3;rotatable=0;labelPosition=right;points=[];portConstraint=eastwest;strokeColor=inherit;" vertex="1" parent="oiWjbPKBmij4qANT0MO2-95">
          <mxGeometry y="52" width="270" height="8" as="geometry" />
        </mxCell>
        <mxCell id="oiWjbPKBmij4qANT0MO2-98" value="register_entity(id)" style="text;strokeColor=none;fillColor=none;align=left;verticalAlign=top;spacingLeft=4;spacingRight=4;overflow=hidden;rotatable=0;points=[[0,0.5],[1,0.5]];portConstraint=eastwest;whiteSpace=wrap;html=1;" vertex="1" parent="oiWjbPKBmij4qANT0MO2-95">
          <mxGeometry y="60" width="270" height="26" as="geometry" />
        </mxCell>
        <mxCell id="oiWjbPKBmij4qANT0MO2-99" value="add_component(id, component)" style="text;strokeColor=none;fillColor=none;align=left;verticalAlign=top;spacingLeft=4;spacingRight=4;overflow=hidden;rotatable=0;points=[[0,0.5],[1,0.5]];portConstraint=eastwest;whiteSpace=wrap;html=1;" vertex="1" parent="oiWjbPKBmij4qANT0MO2-95">
          <mxGeometry y="86" width="270" height="26" as="geometry" />
        </mxCell>
        <mxCell id="oiWjbPKBmij4qANT0MO2-100" value="create_scenegraph()" style="text;strokeColor=none;fillColor=none;align=left;verticalAlign=top;spacingLeft=4;spacingRight=4;overflow=hidden;rotatable=0;points=[[0,0.5],[1,0.5]];portConstraint=eastwest;whiteSpace=wrap;html=1;" vertex="1" parent="oiWjbPKBmij4qANT0MO2-95">
          <mxGeometry y="112" width="270" height="26" as="geometry" />
        </mxCell>
        <mxCell id="oiWjbPKBmij4qANT0MO2-101" value="SceneGraph" style="swimlane;fontStyle=0;childLayout=stackLayout;horizontal=1;startSize=26;fillColor=none;horizontalStack=0;resizeParent=1;resizeParentMax=0;resizeLast=0;collapsible=1;marginBottom=0;whiteSpace=wrap;html=1;" vertex="1" parent="1">
          <mxGeometry x="1200" y="552" width="170" height="78" as="geometry" />
        </mxCell>
        <mxCell id="oiWjbPKBmij4qANT0MO2-102" value="parent: Entity" style="text;strokeColor=none;fillColor=none;align=left;verticalAlign=top;spacingLeft=4;spacingRight=4;overflow=hidden;rotatable=0;points=[[0,0.5],[1,0.5]];portConstraint=eastwest;whiteSpace=wrap;html=1;" vertex="1" parent="oiWjbPKBmij4qANT0MO2-101">
          <mxGeometry y="26" width="170" height="26" as="geometry" />
        </mxCell>
        <mxCell id="oiWjbPKBmij4qANT0MO2-103" value="children: Vec&amp;lt;SceneGraph&amp;gt;" style="text;strokeColor=none;fillColor=none;align=left;verticalAlign=top;spacingLeft=4;spacingRight=4;overflow=hidden;rotatable=0;points=[[0,0.5],[1,0.5]];portConstraint=eastwest;whiteSpace=wrap;html=1;" vertex="1" parent="oiWjbPKBmij4qANT0MO2-101">
          <mxGeometry y="52" width="170" height="26" as="geometry" />
        </mxCell>
        <mxCell id="oiWjbPKBmij4qANT0MO2-107" style="edgeStyle=orthogonalEdgeStyle;rounded=0;orthogonalLoop=1;jettySize=auto;html=1;exitX=0;exitY=0.5;exitDx=0;exitDy=0;entryX=1;entryY=0.5;entryDx=0;entryDy=0;" edge="1" parent="1" source="oiWjbPKBmij4qANT0MO2-106" target="oiWjbPKBmij4qANT0MO2-92">
          <mxGeometry relative="1" as="geometry" />
        </mxCell>
        <mxCell id="oiWjbPKBmij4qANT0MO2-108" value="SceneGraph" style="edgeLabel;html=1;align=center;verticalAlign=middle;resizable=0;points=[];" vertex="1" connectable="0" parent="oiWjbPKBmij4qANT0MO2-107">
          <mxGeometry x="-0.2092" relative="1" as="geometry">
            <mxPoint as="offset" />
          </mxGeometry>
        </mxCell>
        <mxCell id="oiWjbPKBmij4qANT0MO2-106" value="EntityManager" style="html=1;whiteSpace=wrap;" vertex="1" parent="1">
          <mxGeometry x="410" y="20" width="110" height="50" as="geometry" />
        </mxCell>
      </root>
    </mxGraphModel>
  </diagram>
</mxfile>
